<svg width="1151" height="272" viewBox="0 0 1151 272" fill="none" xmlns="http://www.w3.org/2000/svg">
<path d="M36.6313 87.6653L121.342 37.2969L206.053 85.3758V186.113L121.342 234.192L34.3418 183.823L36.6313 87.6653Z" stroke="#E2214B" stroke-width="9.1579"/>
<path d="M4.57812 69.5184L120.578 5.24609L233.526 68.9787V202.514L120.578 266.246L4.57812 199.479V69.5184Z" stroke="#E2214B" stroke-width="9.1579"/>
<path d="M121.34 5.24805V37.3007" stroke="#E2214B" stroke-width="9.1579"/>
<path d="M6.86914 71.6426L36.6324 87.6689" stroke="#E2214B" stroke-width="9.1579"/>
<path d="M4.57812 199.851L34.3413 183.824" stroke="#E2214B" stroke-width="9.1579"/>
<path d="M121.34 266.242V234.189" stroke="#E2214B" stroke-width="9.1579"/>
<path d="M206.049 186.111L233.523 202.138" stroke="#E2214B" stroke-width="9.1579"/>
<path d="M206.049 85.3798L233.523 69.3535" stroke="#E2214B" stroke-width="9.1579"/>
<path d="M374.909 87.5671V196.079H360.742V146.883H305.474V196.079H291.307V87.5671H305.474V135.207H360.742V87.5671H374.909Z" fill="#002E5A"/>
<path d="M470.715 150.152C470.715 152.851 470.559 155.705 470.248 158.715H402.058C402.577 167.122 405.431 173.712 410.621 178.487C415.914 183.157 422.297 185.493 429.77 185.493C435.893 185.493 440.979 184.091 445.027 181.289C449.178 178.383 452.085 174.543 453.745 169.768H469.002C466.719 177.968 462.152 184.662 455.302 189.852C448.452 194.937 439.941 197.48 429.77 197.48C421.674 197.48 414.409 195.664 407.974 192.031C401.643 188.399 396.661 183.261 393.028 176.618C389.396 169.872 387.579 162.088 387.579 153.266C387.579 144.444 389.344 136.711 392.873 130.069C396.401 123.426 401.331 118.341 407.663 114.812C414.098 111.179 421.467 109.363 429.77 109.363C437.865 109.363 445.027 111.127 451.254 114.656C457.482 118.185 462.256 123.063 465.577 129.291C469.002 135.414 470.715 142.368 470.715 150.152ZM456.08 147.194C456.08 141.797 454.887 137.179 452.5 133.338C450.113 129.394 446.843 126.436 442.692 124.464C438.644 122.389 434.129 121.351 429.147 121.351C421.986 121.351 415.862 123.634 410.776 128.201C405.794 132.767 402.94 139.099 402.214 147.194H456.08Z" fill="#002E5A"/>
<path d="M527.714 196.079L507.475 164.319L488.014 196.079H473.224L500.78 153.733L473.224 110.764H489.259L509.498 142.368L528.803 110.764H543.593L516.193 152.955L543.749 196.079H527.714Z" fill="#002E5A"/>
<path d="M546.165 153.11C546.165 144.392 547.929 136.763 551.458 130.225C554.987 123.582 559.813 118.445 565.936 114.812C572.164 111.179 579.066 109.363 586.643 109.363C594.115 109.363 600.602 110.972 606.103 114.189C611.604 117.407 615.704 121.454 618.402 126.333V110.764H632.725V196.079H618.402V180.199C615.6 185.181 611.396 189.333 605.792 192.654C600.291 195.871 593.856 197.48 586.487 197.48C578.91 197.48 572.06 195.612 565.936 191.876C559.813 188.139 554.987 182.898 551.458 176.151C547.929 169.405 546.165 161.725 546.165 153.11ZM618.402 153.266C618.402 146.831 617.105 141.226 614.51 136.452C611.915 131.678 608.386 128.045 603.924 125.554C599.564 122.959 594.738 121.662 589.445 121.662C584.152 121.662 579.325 122.907 574.966 125.398C570.607 127.889 567.13 131.522 564.535 136.296C561.941 141.071 560.643 146.675 560.643 153.11C560.643 159.649 561.941 165.357 564.535 170.235C567.13 175.01 570.607 178.694 574.966 181.289C579.325 183.78 584.152 185.025 589.445 185.025C594.738 185.025 599.564 183.78 603.924 181.289C608.386 178.694 611.915 175.01 614.51 170.235C617.105 165.357 618.402 159.701 618.402 153.266Z" fill="#002E5A"/>
<path d="M742.854 196.079L717.01 151.709H699.885V196.079H685.717V87.5671H720.746C728.946 87.5671 735.848 88.9683 741.452 91.7706C747.161 94.5729 751.416 98.3613 754.219 103.136C757.021 107.91 758.422 113.359 758.422 119.482C758.422 126.955 756.242 133.546 751.883 139.254C747.628 144.963 741.193 148.751 732.578 150.619L759.823 196.079H742.854ZM699.885 140.344H720.746C728.427 140.344 734.187 138.476 738.027 134.739C741.868 130.899 743.788 125.814 743.788 119.482C743.788 113.047 741.868 108.066 738.027 104.537C734.291 101.008 728.531 99.2435 720.746 99.2435H699.885V140.344Z" fill="#002E5A"/>
<path d="M852.05 150.152C852.05 152.851 851.895 155.705 851.583 158.715H783.394C783.913 167.122 786.767 173.712 791.956 178.487C797.25 183.157 803.633 185.493 811.105 185.493C817.229 185.493 822.315 184.091 826.363 181.289C830.514 178.383 833.42 174.543 835.081 169.768H850.338C848.055 177.968 843.488 184.662 836.638 189.852C829.788 194.937 821.277 197.48 811.105 197.48C803.01 197.48 795.745 195.664 789.31 192.031C782.978 188.399 777.997 183.261 774.364 176.618C770.731 169.872 768.915 162.088 768.915 153.266C768.915 144.444 770.679 136.711 774.208 130.069C777.737 123.426 782.667 118.341 788.998 114.812C795.433 111.179 802.802 109.363 811.105 109.363C819.201 109.363 826.363 111.127 832.59 114.656C838.817 118.185 843.592 123.063 846.913 129.291C850.338 135.414 852.05 142.368 852.05 150.152ZM837.416 147.194C837.416 141.797 836.223 137.179 833.835 133.338C831.448 129.394 828.179 126.436 824.027 124.464C819.979 122.389 815.465 121.351 810.483 121.351C803.321 121.351 797.198 123.634 792.112 128.201C787.13 132.767 784.276 139.099 783.549 147.194H837.416ZM825.74 86.633L792.579 104.381V93.7945L825.74 74.334V86.633Z" fill="#002E5A"/>
<path d="M906.091 109.207C916.47 109.207 924.877 112.373 931.312 118.704C937.747 124.931 940.965 133.961 940.965 145.793V196.079H926.953V147.817C926.953 139.306 924.825 132.819 920.57 128.356C916.315 123.79 910.502 121.506 903.133 121.506C895.66 121.506 889.693 123.842 885.23 128.512C880.87 133.183 878.691 139.981 878.691 148.907V196.079H864.524V110.764H878.691V122.907C881.493 118.548 885.281 115.175 890.056 112.788C894.934 110.401 900.279 109.207 906.091 109.207Z" fill="#002E5A"/>
<path d="M995.088 197.48C987.096 197.48 979.831 195.664 973.292 192.031C966.857 188.399 961.772 183.261 958.035 176.618C954.402 169.872 952.586 162.088 952.586 153.266C952.586 144.548 954.454 136.867 958.191 130.225C962.031 123.478 967.221 118.341 973.759 114.812C980.298 111.179 987.615 109.363 995.711 109.363C1003.81 109.363 1011.12 111.179 1017.66 114.812C1024.2 118.341 1029.34 123.426 1033.08 130.069C1036.92 136.711 1038.84 144.444 1038.84 153.266C1038.84 162.088 1036.86 169.872 1032.92 176.618C1029.08 183.261 1023.84 188.399 1017.2 192.031C1010.55 195.664 1003.18 197.48 995.088 197.48ZM995.088 185.025C1000.17 185.025 1004.95 183.832 1009.41 181.445C1013.87 179.058 1017.45 175.477 1020.15 170.702C1022.96 165.928 1024.36 160.116 1024.36 153.266C1024.36 146.416 1023.01 140.604 1020.31 135.829C1017.61 131.055 1014.08 127.526 1009.72 125.243C1005.36 122.856 1000.64 121.662 995.555 121.662C990.366 121.662 985.591 122.856 981.232 125.243C976.977 127.526 973.552 131.055 970.957 135.829C968.362 140.604 967.065 146.416 967.065 153.266C967.065 160.22 968.31 166.084 970.801 170.858C973.396 175.633 976.821 179.213 981.076 181.6C985.332 183.884 990.002 185.025 995.088 185.025Z" fill="#002E5A"/>
<path d="M1083 183.002L1109.46 110.764H1124.56L1091.09 196.079H1074.59L1041.12 110.764H1056.37L1083 183.002Z" fill="#002E5A"/>
<path d="M1134.46 87.5671H1150.18L1135.23 122.907H1125.27L1134.46 87.5671Z" fill="#002E5A"/>
</svg>
